<svg xmlns="http://www.w3.org/2000/svg" viewBox="0 0 750 471">
  <rect width="750" height="471" rx="40" fill="#fff"/>
  <path d="M278.2 334.4L311 138.7h52.3l-32.8 195.7H278.2zM524.3 143.2c-10.4-3.8-26.6-8-47-8-51.8 0-88.3 26.1-88.6 63.5-.3 27.7 26.1 43.1 46.1 52.3 20.4 9.4 27.3 15.5 27.2 23.9-.1 12.9-16.3 18.8-31.4 18.8-21 0-32.1-2.9-49.3-10.1l-6.8-3.1-7.3 43c12.2 5.3 34.7 10 58.1 10.2 54.8 0 90.4-25.7 90.8-65.5.2-21.8-13.7-38.4-43.8-52.1-18.2-8.9-29.4-14.8-29.3-23.8 0-8 9.5-16.5 29.9-16.5 17.1-.3 29.5 3.5 39.1 7.4l4.7 2.2 7.6-41.2zM618.7 138.7h-40.5c-12.5 0-21.9 3.4-27.4 15.9l-77.7 175.8h54.9l11-28.7h67l6.2 28.7h48.4L618.7 138.7zm-64.4 122.8l20.8-53.7 5.2-13.4 8.3 38.4 4.7 28.7h-39zM232.7 138.7l-51.3 133.6-5.5-26.7c-9.6-30.9-39.5-64.5-73-81.2l47 170h55.3l82.2-195.7h-54.7z" fill="#1A1F71"/>
  <path d="M152.3 138.7H69.2l-.7 3.9c65.1 15.7 108.2 53.7 126 99.4l-18.2-87.5c-3.1-11.9-12.3-15.4-24-15.8z" fill="#FAA61A"/>
</svg>
